<svg xmlns="http://www.w3.org/2000/svg" width="1600" height="2000" viewBox="0 0 1600 2000" role="img" aria-label="Ember 16 Turning Peel contents preproduction image">
  <defs>
    <linearGradient id="bg" x1="0" x2="1" y1="0" y2="1">
      <stop offset="0" stop-color="#f4f2eb"/>
      <stop offset="1" stop-color="#e5e0d2"/>
    </linearGradient>
  </defs>
  <rect width="1600" height="2000" fill="url(#bg)"/>
  <circle cx="160" cy="200" r="115" fill="#fff" opacity="0.52"/>
  <circle cx="1440" cy="1725" r="160" fill="#fff" opacity="0.42"/>
  <g transform="translate(1255 220)" opacity="0.82"><circle cx="0" cy="0" r="42" fill="none" stroke="#22241f" stroke-width="4"/><text x="0" y="8" font-family="Arial, sans-serif" font-size="14" text-anchor="middle" fill="#22241f" font-weight="700">KO</text></g>
  <text x="800" y="220" text-anchor="middle" font-family="Arial, sans-serif" font-size="26" letter-spacing="7" fill="#3a3a35">KALM OUTDOOR ACCESSORIES</text>
  <line x1="380" y1="1570" x2="1220" y2="1570" stroke="#d7c8a8" stroke-width="3" opacity="0.65"/>
  <g transform="translate(800 990) rotate(13)"><ellipse cx="800" cy="1450" rx="420" ry="70" fill="#000" opacity="0.10"/><rect x="-34" y="-350" width="68" height="790" rx="34" fill="#22241f"/><circle cx="0" cy="-475" r="260" fill="#c6c6bd" stroke="#22241f" stroke-width="10"/><circle cx="0" cy="-475" r="210" fill="none" stroke="#fff" stroke-width="16" opacity="0.3"/><circle cx="0" cy="420" r="28" fill="#c6c6bd"/></g><g transform="translate(450 335)"><rect x="0" y="0" width="700" height="120" rx="60" fill="#fff" opacity="0.7"/><text x="350" y="76" text-anchor="middle" font-family="Arial, sans-serif" font-size="28" fill="#111411">planned contents pending supplier confirmation</text></g>
  <text x="800" y="1805" text-anchor="middle" font-family="Arial, sans-serif" font-size="46" font-weight="700" letter-spacing="2" fill="#111411">Ember 16 Turning Peel</text><text x="800" y="1865" text-anchor="middle" font-family="Arial, sans-serif" font-size="24" letter-spacing="5" fill="#3a3a35">KALM OUTDOOR / PREPRODUCTION</text><text x="800" y="1914" text-anchor="middle" font-family="Arial, sans-serif" font-size="22" fill="#3a3a35">Turning Peel - supplier specification pending</text>
</svg>